<svg xmlns="http://www.w3.org/2000/svg" aria-hidden="true" overflow="hidden" style="position:absolute;width:0;height:0">
  <defs>
    <symbol id="icon-burger-menu" viewBox="0 0 32 32">
      <path d="M29.333 24.007c0 .733-.595 1.327-1.327 1.327h-10.68a1.327 1.327 0 1 1 0-2.654h10.68c.733 0 1.327.593 1.327 1.327zm0-8.007c0 .733-.595 1.327-1.327 1.327H3.993a1.327 1.327 0 1 1 0-2.654h24.013c.733 0 1.327.595 1.327 1.327zm-1.326-6.68a1.327 1.327 0 1 0 0-2.654H11.994a1.327 1.327 0 1 0 0 2.654h16.013z"/>
    </symbol>
    
    <symbol id="icon-link" viewBox="0 0 32 32">
      <path d="M10.447 21.56a8.689 8.689 0 0 1-.855-.997 1.334 1.334 0 0 1 2.156-1.571c.172.237.365.465.583.681 1.071 1.071 2.493 1.66 4.007 1.66s2.937-.589 4.007-1.66l7.333-7.333c2.209-2.209 2.209-5.805 0-8.015s-5.805-2.209-8.015 0l-1.411 1.411a1.332 1.332 0 1 1-1.885-1.885l1.411-1.411c3.249-3.251 8.536-3.251 11.785 0 3.249 3.249 3.249 8.536 0 11.785l-7.333 7.333c-1.573 1.575-3.667 2.441-5.892 2.441s-4.319-.867-5.891-2.44zM8.337 32a8.274 8.274 0 0 0 5.892-2.441l1.411-1.411a1.332 1.332 0 1 0-1.885-1.885l-1.412 1.411c-1.071 1.071-2.493 1.66-4.007 1.66s-2.936-.589-4.007-1.66-1.66-2.493-1.66-4.007.589-2.937 1.66-4.007l7.333-7.333c1.071-1.071 2.493-1.66 4.007-1.66s2.937.589 4.007 1.66c.213.215.408.443.581.68a1.334 1.334 0 1 0 2.158-1.568 8.326 8.326 0 0 0-.852-.996C19.988 8.867 17.895 8 15.67 8s-4.319.867-5.892 2.441l-7.332 7.333C.871 19.347.005 21.441.005 23.666s.867 4.319 2.441 5.892a8.27 8.27 0 0 0 5.892 2.441z"/>
    </symbol>
    <symbol id="icon-burger-cross" viewBox="0 0 32 32">
      <path stroke-linecap="round" stroke-linejoin="round" stroke-width="4" d="M3.2 3.2 16 16m0 0L3.2 28.8M16 16l12.8 12.8M16 16 28.8 3.2"/>
    </symbol>
    <symbol id="icon-linkedin" viewBox="0 0 32 32">
  <path
    d="M12 12h5.535v2.837h.079c.77-1.381 2.655-2.837 5.464-2.837C28.92 12 30 15.637 30 20.367V30h-5.769v-8.54c0-2.037-.042-4.657-3.001-4.657-3.005 0-3.463 2.218-3.463 4.509V30H12V12zM2 12h6v18H2V12zm6-5a3 3 0 1 1-6 0 3 3 0 0 1 6 0z"
    fill="none"
    stroke="currentColor"
    stroke-width="2"
    stroke-linecap="round"
    stroke-linejoin="round"
  />
</symbol>

<symbol id="icon-phone" viewBox="0 0 32 32">
  <path
    d="M22 20c-2 2-2 4-4 4s-4-2-6-4-4-4-4-6 2-2 4-4-4-8-6-8-6 6-6 6c0 4 4.109 12.109 8 16s12 8 16 8c0 0 6-4 6-6s-6-8-8-6z"
    fill="none"
    stroke="currentColor"
    stroke-width="2"
    stroke-linecap="round"
    stroke-linejoin="round"
  />
</symbol>

<symbol id="icon-mail" viewBox="0 0 32 32">
  <path
    d="M5.333 5.333h21.333c1.467 0 2.667 1.2 2.667 2.667v16c0 1.467-1.2 2.667-2.667 2.667H5.333A2.675 2.675 0 0 1 2.666 24V8c0-1.467 1.2-2.667 2.667-2.667z"
    fill="none"
    stroke="currentColor"
    stroke-width="2"
    stroke-linecap="round"
    stroke-linejoin="round"
  />
  <path
    d="M29.333 8 16 17.333 2.667 8"
    fill="none"
    stroke="currentColor"
    stroke-width="2"
    stroke-linecap="round"
    stroke-linejoin="round"
  />
</symbol>
  
  </defs>
</svg>
